<svg xmlns="http://www.w3.org/2000/svg" viewBox="0 0 621 311"><title>Regresa</title><g id="Capa_2" data-name="Capa 2"><g id="Capa_1-2" data-name="Capa 1"><rect x="0.5" y="0.5" width="620" height="310" fill="#293b4c" stroke="#293b4c" stroke-miterlimit="10"/><g opacity="0.7"><path d="M109.84,235v36.94H91.3V179.49h32q15.81,0,24.73,7.2t8.92,20.09a20.28,20.28,0,0,1-3.78,12.29,26.27,26.27,0,0,1-11,8.34q8.17,2.42,11.77,8.06t3.59,14v6.79a34,34,0,0,0,1,8.09,11.18,11.18,0,0,0,3.59,6.26v1.33H143c-1.69-1.35-2.78-3.6-3.26-6.73a58.72,58.72,0,0,1-.73-9.08v-6.53q0-6.93-3.78-10.76T124.56,235Zm0-14.29H123q7.8,0,11.61-3.3t3.81-9.77q0-6.35-3.84-10.09t-11.27-3.75H109.84Z" fill="#7a7a77"/><path d="M202.51,273.24q-15.36,0-24-9.42t-8.64-24.28V237q0-15.44,8.38-25.27T201.31,202q13.83,0,21.23,8.47t7.39,22.82v9.59H189l-.19.38a18.5,18.5,0,0,0,4.29,11.42q3.84,4.38,11.39,4.38a38,38,0,0,0,10.57-1.27,42.49,42.49,0,0,0,9-3.87l5,11.43A34.71,34.71,0,0,1,217.87,271,49.58,49.58,0,0,1,202.51,273.24Zm-1.2-57a10.3,10.3,0,0,0-8.61,3.84,19.33,19.33,0,0,0-3.65,10.19l.13.32h22.6v-1.4q0-6-2.48-9.49T201.31,216.24Z" fill="#7a7a77"/><path d="M238,238.14q0-16.24,7-26.22t19.81-10a19.53,19.53,0,0,1,10.15,2.6,22.78,22.78,0,0,1,7.49,7.43l1.46-8.76h15.94v68.36q0,13.4-8.76,20.73t-24.44,7.33a46.7,46.7,0,0,1-11.05-1.43,51.23,51.23,0,0,1-10.79-3.9L248,280.48a43.1,43.1,0,0,0,8.79,3.08,43.54,43.54,0,0,0,9.81,1q7.62,0,11.2-3.17t3.59-9.9v-6.22a20.68,20.68,0,0,1-7.17,5.9,21.09,21.09,0,0,1-9.46,2q-12.63,0-19.68-9.26t-7-24.51Zm18.53,1.33q0,9,3,14.19t9.87,5.17a15.26,15.26,0,0,0,7.2-1.55,11.92,11.92,0,0,0,4.73-4.54V223a12.65,12.65,0,0,0-4.73-4.89,13.9,13.9,0,0,0-7.08-1.71,10.4,10.4,0,0,0-9.9,6q-3.11,6-3.11,15.74Z" fill="#7a7a77"/><path d="M350.22,219.16l-6.79-.19a12.37,12.37,0,0,0-6.79,1.71,10.91,10.91,0,0,0-4.06,4.83v46.4H314.1V203.23h17.21l.82,10.15a21.73,21.73,0,0,1,6.25-8.41,13.93,13.93,0,0,1,8.86-3,13.68,13.68,0,0,1,2.57.22c.78.15,1.57.33,2.38.54Z" fill="#7a7a77"/><path d="M388.43,273.24q-15.36,0-24-9.42t-8.63-24.28V237q0-15.44,8.38-25.27t23-9.77q13.83,0,21.23,8.47t7.4,22.82v9.59H374.91l-.19.38A18.56,18.56,0,0,0,379,254.64Q382.85,259,390.4,259A38,38,0,0,0,401,257.75a42.49,42.49,0,0,0,9-3.87l5,11.43A34.65,34.65,0,0,1,403.8,271,49.69,49.69,0,0,1,388.43,273.24Zm-1.2-57a10.28,10.28,0,0,0-8.6,3.84A19.25,19.25,0,0,0,375,230.27l.12.32h22.6v-1.4q0-6-2.47-9.49T387.23,216.24Z" fill="#7a7a77"/><path d="M463.78,252.87a6.39,6.39,0,0,0-2.95-5.24q-3-2.19-10.95-3.84-12.06-2.41-18.31-7.3a16,16,0,0,1-6.26-13.27q0-8.82,7.49-15T452.74,202q13,0,20.85,6.22t7.52,15.49l-.13.38h-17.9a9,9,0,0,0-2.66-6.73c-1.78-1.74-4.34-2.6-7.68-2.6a10.49,10.49,0,0,0-7.05,2.22,6.89,6.89,0,0,0-2.6,5.46,6.16,6.16,0,0,0,2.7,5.17q2.68,2,10.94,3.59,12.64,2.53,18.82,7.46t6.19,13.55q0,9.27-7.93,15.17t-20.95,5.9q-13.71,0-21.67-6.95t-7.59-15.84l.13-.38h16.94c.13,3.69,1.34,6.35,3.62,8a15,15,0,0,0,8.95,2.48q5.14,0,7.84-2.07A6.67,6.67,0,0,0,463.78,252.87Z" fill="#7a7a77"/><path d="M534.18,271.91a39.56,39.56,0,0,1-1.75-5,34,34,0,0,1-1-5.33,25.37,25.37,0,0,1-7.55,8.31,18.94,18.94,0,0,1-11.17,3.3q-10.8,0-16.63-5.55t-5.84-15.14q0-10.1,7.77-15.65t22.7-5.55h10.41v-5.46q0-4.95-2.61-7.68t-7.74-2.73c-3,0-5.32.73-7,2.19a7.65,7.65,0,0,0-2.45,6H493.49l-.13-.38q-.45-8.7,7.59-15t21-6.31q12.39,0,20,6.22T549.6,226v28.37a53.36,53.36,0,0,0,.73,9.08,45.69,45.69,0,0,0,2.32,8.44Zm-16.95-12.38a15.78,15.78,0,0,0,8.63-2.41,13,13,0,0,0,5.21-5.59v-9.71H520.66c-3.94,0-6.91,1-8.92,2.92a9.61,9.61,0,0,0-3,7.17,7.18,7.18,0,0,0,2.25,5.56A9,9,0,0,0,517.23,259.53Z" fill="#7a7a77"/></g><path d="M102.84,228v36.94H84.3V172.49h32q15.81,0,24.73,7.2t8.92,20.09a20.28,20.28,0,0,1-3.78,12.29,26.27,26.27,0,0,1-11,8.34q8.17,2.42,11.77,8.06t3.59,14v6.79a34,34,0,0,0,1,8.09,11.18,11.18,0,0,0,3.59,6.26v1.33H136c-1.69-1.35-2.78-3.6-3.26-6.73a58.72,58.72,0,0,1-.73-9.08v-6.53q0-6.93-3.78-10.76T117.56,228Zm0-14.29H116q7.8,0,11.61-3.3t3.81-9.77q0-6.35-3.84-10.09t-11.27-3.75H102.84Z" fill="#fff"/><path d="M195.51,266.24q-15.36,0-24-9.42t-8.64-24.28V230q0-15.44,8.38-25.27T194.31,195q13.83,0,21.23,8.47t7.39,22.82v9.59H182l-.19.38a18.5,18.5,0,0,0,4.29,11.42q3.84,4.38,11.39,4.38a38,38,0,0,0,10.57-1.27,42.49,42.49,0,0,0,9-3.87l5,11.43A34.71,34.71,0,0,1,210.87,264,49.58,49.58,0,0,1,195.51,266.24Zm-1.2-57a10.3,10.3,0,0,0-8.61,3.84,19.33,19.33,0,0,0-3.65,10.19l.13.32h22.6v-1.4q0-6-2.48-9.49T194.31,209.24Z" fill="#fff"/><path d="M231,231.14q0-16.24,7-26.22t19.81-10a19.53,19.53,0,0,1,10.15,2.6,22.78,22.78,0,0,1,7.49,7.43l1.46-8.76h15.94v68.36q0,13.4-8.76,20.73t-24.44,7.33a46.7,46.7,0,0,1-11.05-1.43,51.23,51.23,0,0,1-10.79-3.9L241,273.48a43.1,43.1,0,0,0,8.79,3.08,43.54,43.54,0,0,0,9.81,1q7.62,0,11.2-3.17t3.59-9.9v-6.22a20.68,20.68,0,0,1-7.17,5.9,21.09,21.09,0,0,1-9.46,2q-12.63,0-19.68-9.26t-7-24.51Zm18.53,1.33q0,9,3,14.19t9.87,5.17a15.26,15.26,0,0,0,7.2-1.55,11.92,11.92,0,0,0,4.73-4.54V216a12.65,12.65,0,0,0-4.73-4.89,13.9,13.9,0,0,0-7.08-1.71,10.4,10.4,0,0,0-9.9,6q-3.1,6-3.11,15.74Z" fill="#fff"/><path d="M343.22,212.16l-6.79-.19a12.37,12.37,0,0,0-6.79,1.71,10.91,10.91,0,0,0-4.06,4.83v46.4H307.1V196.23h17.21l.82,10.15a21.73,21.73,0,0,1,6.25-8.41,13.93,13.93,0,0,1,8.86-3,13.68,13.68,0,0,1,2.57.22c.78.15,1.57.33,2.38.54Z" fill="#fff"/><path d="M381.43,266.24q-15.36,0-24-9.42t-8.63-24.28V230q0-15.44,8.38-25.27t23-9.77q13.83,0,21.23,8.47t7.4,22.82v9.59H367.91l-.19.38A18.56,18.56,0,0,0,372,247.64Q375.85,252,383.4,252A38,38,0,0,0,394,250.75a42.49,42.49,0,0,0,9-3.87l5,11.43A34.65,34.65,0,0,1,396.8,264,49.69,49.69,0,0,1,381.43,266.24Zm-1.2-57a10.28,10.28,0,0,0-8.6,3.84A19.25,19.25,0,0,0,368,223.27l.12.32h22.6v-1.4q0-6-2.47-9.49T380.23,209.24Z" fill="#fff"/><path d="M456.78,245.87a6.39,6.39,0,0,0-2.95-5.24q-3-2.19-10.95-3.84-12.06-2.41-18.31-7.3a16,16,0,0,1-6.26-13.27q0-8.82,7.49-15T445.74,195q13,0,20.85,6.22t7.52,15.49l-.13.38h-17.9a9,9,0,0,0-2.66-6.73c-1.78-1.74-4.34-2.6-7.68-2.6a10.49,10.49,0,0,0-7.05,2.22,6.89,6.89,0,0,0-2.6,5.46,6.16,6.16,0,0,0,2.7,5.17q2.68,2,10.94,3.59,12.64,2.53,18.82,7.46t6.19,13.55q0,9.27-7.93,15.17t-20.95,5.9q-13.71,0-21.67-6.95t-7.59-15.84l.13-.38h16.94c.13,3.69,1.34,6.35,3.62,8a15,15,0,0,0,8.95,2.48q5.14,0,7.84-2.07A6.67,6.67,0,0,0,456.78,245.87Z" fill="#fff"/><path d="M527.18,264.91a39.56,39.56,0,0,1-1.75-5,34,34,0,0,1-1-5.33,25.37,25.37,0,0,1-7.55,8.31,18.94,18.94,0,0,1-11.17,3.3q-10.8,0-16.63-5.55t-5.84-15.14q0-10.1,7.77-15.65t22.7-5.55h10.41v-5.46q0-4.95-2.61-7.68t-7.74-2.73c-3,0-5.32.73-7,2.19a7.65,7.65,0,0,0-2.45,6H486.49l-.13-.38q-.45-8.7,7.59-15t21-6.31q12.39,0,20,6.22T542.6,219v28.37a53.36,53.36,0,0,0,.73,9.08,45.69,45.69,0,0,0,2.32,8.44Zm-16.95-12.38a15.78,15.78,0,0,0,8.63-2.41,13,13,0,0,0,5.21-5.59v-9.71H513.66c-3.94,0-6.91,1-8.92,2.92a9.61,9.61,0,0,0-3,7.17,7.18,7.18,0,0,0,2.25,5.56A9,9,0,0,0,510.23,252.53Z" fill="#fff"/></g></g></svg>