<svg xmlns="http://www.w3.org/2000/svg" viewBox="0 0 621 311"><title>InterActivoInferior</title><g id="Capa_2" data-name="Capa 2"><g id="Capa_1-2" data-name="Capa 1"><rect x="0.5" y="0.5" width="620" height="310" fill="#293b4c" stroke="#293b4c" stroke-miterlimit="10"/><g opacity="0.5"><path d="M124.82,114.91H90.24l-7.17,23H61l35.75-106h21.76l35.6,106H132.07Zm-29.12-17h23.73l-11.61-37h-.43Z" fill="#bcbcb7"/><path d="M241.5,102.91l.15.44q.28,17-10.25,26.65t-29.08,9.64q-18.91,0-30.53-12.3T160.17,95.53V74.43q0-19.43,11.33-31.8t29.74-12.38q19.19,0,30,9.5t10.53,26.72l-.14.44h-20.5q0-10.21-4.87-15.23t-15-5a16.91,16.91,0,0,0-14.76,7.71q-5.31,7.7-5.31,19.9V95.53q0,12.27,5.6,20t15.55,7.74q9.45,0,14.11-5t4.65-15.37Z" fill="#bcbcb7"/><path d="M328.17,48.91h-30v89h-21v-89h-30v-17h81Z" fill="#bcbcb7"/><path d="M362.17,136.91h-21v-105h21Z" fill="#bcbcb7"/><path d="M419.37,108.16l1.29,5.75h.43l1.22-5.53,22.78-76.47h22.3l-35.7,105H410.06l-35.63-105h22.3Z" fill="#bcbcb7"/><path d="M562.17,94.27q0,19.49-12.24,32.12T518.06,139q-19.54,0-31.72-12.68T474.17,94.27v-19q0-19.34,12.14-32.05t31.61-12.71q19.62,0,31.94,12.71t12.31,32.05Zm-21-19.16q0-12.35-6.17-20.27t-17.08-7.92q-10.75,0-16.75,7.92t-6,20.27V94.3q0,12.57,6,20.49t16.86,7.92q10.91,0,17-7.92t6.1-20.49Z" fill="#bcbcb7"/></g><path d="M119.82,109.91H85.24l-7.17,23H56l35.75-106h21.76l35.6,106H127.07Zm-29.12-17h23.73l-11.61-37h-.43Z" fill="#fff"/><path d="M236.5,97.91l.15.44q.28,17-10.25,26.65t-29.08,9.64q-18.91,0-30.53-12.3T155.17,90.53V69.43q0-19.43,11.33-31.8t29.74-12.38q19.19,0,30,9.5t10.53,26.72l-.14.44h-20.5q0-10.21-4.87-15.23t-15-5a16.91,16.91,0,0,0-14.76,7.71q-5.31,7.7-5.31,19.9V90.53q0,12.27,5.6,20t15.55,7.74q9.45,0,14.11-5t4.65-15.37Z" fill="#fff"/><path d="M323.17,43.91h-30v89h-21v-89h-30v-17h81Z" fill="#fff"/><path d="M357.17,131.91h-21v-105h21Z" fill="#fff"/><path d="M414.37,103.16l1.29,5.75h.43l1.22-5.53,22.78-76.47h22.3l-35.7,105H405.06l-35.63-105h22.3Z" fill="#fff"/><path d="M557.17,89.27q0,19.49-12.24,32.12T513.06,134q-19.54,0-31.72-12.68T469.17,89.27v-19q0-19.34,12.14-32.05t31.61-12.71q19.62,0,31.94,12.71t12.31,32.05Zm-21-19.16q0-12.34-6.17-20.27t-17.08-7.92q-10.75,0-16.75,7.92t-6,20.27V89.3q0,12.57,6,20.49t16.86,7.92q10.91,0,17-7.92t6.1-20.49Z" fill="#fff"/></g></g></svg>