<svg xmlns="http://www.w3.org/2000/svg" viewBox="0 0 277 284"><title>Asset 1</title><g id="Layer_2" data-name="Layer 2"><g id="Layer_1-2" data-name="Layer 1"><g id="Capa_2" data-name="Capa 2"><g id="Capa_1-2" data-name="Capa 1-2"><rect x="0.5" y="0.5" width="276" height="283" stroke="#000" stroke-miterlimit="10"/><path d="M71,133H59V75H71Z" fill="#fff"/><path d="M91.67,90l.51,6.16A15.61,15.61,0,0,1,97.4,91a13.36,13.36,0,0,1,6.95-1.82q6.44,0,10,4.19T118,106.65V133H106V106.82q0-4.59-1.58-6.51a5.83,5.83,0,0,0-4.76-1.92,9.88,9.88,0,0,0-4.47,1A8.77,8.77,0,0,0,92,102v31H81V90Z" fill="#fff"/><path d="M141,80V90h7v8h-7v21.79a4.82,4.82,0,0,0,1.09,3.56,3.91,3.91,0,0,0,2.87,1.07,11.42,11.42,0,0,0,1.65-.1,12.81,12.81,0,0,0,1.61-.34l1,8.35a25.33,25.33,0,0,1-3.53.89,22.17,22.17,0,0,1-3.73.3q-6.22,0-9.59-3.29T129,119.83V98h-6V90h6V80Z" fill="#fff"/><path d="M173.1,133.94q-9.47,0-14.78-5.87T153,112.94v-1.58q0-9.61,5.16-15.74t14.2-6.09q8.52,0,13.08,5.28T190,109v6H164.77l-.11.24a11.53,11.53,0,0,0,2.64,7.12q2.35,2.73,7,2.73a23.47,23.47,0,0,0,6.51-.8,25.89,25.89,0,0,0,5.53-2.41l3.09,7.12a21.08,21.08,0,0,1-6.88,3.52A29.84,29.84,0,0,1,173.1,133.94Zm-.63-35.88a6.46,6.46,0,0,0-5.36,2.39,12.13,12.13,0,0,0-2.27,6.35l.08.2H179v-.87a10,10,0,0,0-1.54-5.91Q175.92,98.06,172.47,98.06Z" fill="#fff"/><path d="M220.46,100l-4.41-.11a8.2,8.2,0,0,0-4.41,1.07,6.85,6.85,0,0,0-2.64,3V133H197V90h11.18l.53,6.36a13.64,13.64,0,0,1,4.06-5.27,9.84,9.84,0,0,1,7.43-1.75c.5.1,1,.21,1.54.34Z" fill="#fff"/><path d="M79,179.85a22.27,22.27,0,0,1-8.11,6.28q-5.4,2.66-13.91,2.66-10.54,0-17.27-6.75T33,164.52V152.16q0-10.72,6.51-17.5t16.75-6.77q10.67,0,16.35,5.15t5.47,13.72L78,147H65.73a9.53,9.53,0,0,0-2.6-7.14c-1.73-1.7-4.26-2.55-7.57-2.55a10.11,10.11,0,0,0-8.38,4.09A16.73,16.73,0,0,0,44,151.94v12.11a16.65,16.65,0,0,0,3.26,10.64A10.61,10.61,0,0,0,56,178.8a20,20,0,0,0,6.38-.83,9.66,9.66,0,0,0,3.63-2.1V165H56v-8H79Z" fill="#fff"/><path d="M110.46,154l-4.41-.12a8.2,8.2,0,0,0-4.41,1.07A6.85,6.85,0,0,0,99,158V187H87V144H98.18l.53,6.36a13.64,13.64,0,0,1,4.06-5.27,9.84,9.84,0,0,1,7.43-1.75c.5.1,1,.21,1.54.34Z" fill="#fff"/><path d="M142.29,180.64a14.64,14.64,0,0,1-5,5.33,13.07,13.07,0,0,1-7,1.86q-6.7,0-10.49-4.61T116,168.92V144h11v24.88c0,3.74.5,6.31,1.5,7.69a5.36,5.36,0,0,0,4.64,2.08,11.3,11.3,0,0,0,4.67-.89,7.93,7.93,0,0,0,3.19-2.63V144h12v43h-9.5Z" fill="#fff"/><path d="M200,166.58q0,9.49-4.38,15.27t-12.21,5.77a13.6,13.6,0,0,1-6-1.24,12.24,12.24,0,0,1-4.45-3.66V203H161V144h10.9l.67,5.06a13.75,13.75,0,0,1,4.55-4.33,12.34,12.34,0,0,1,6.21-1.52,14.15,14.15,0,0,1,12.29,6.21q4.38,6.21,4.38,16.33ZM189,166a21.38,21.38,0,0,0-2.08-10.1,6.74,6.74,0,0,0-6.35-3.86,9,9,0,0,0-4.58,1.09,7.86,7.86,0,0,0-3,3.14v19.3a7.27,7.27,0,0,0,3,2.85,10,10,0,0,0,4.66,1A6.83,6.83,0,0,0,187,176c1.35-2.26,2-5.31,2-9.17Z" fill="#fff"/><path d="M206,165.24q0-9.48,5.29-15.53t14.65-6.05q9.41,0,14.73,6T246,165.24v.83q0,9.56-5.31,15.57t-14.67,6q-9.41,0-14.71-6T206,166.07Zm11,.82a18.21,18.21,0,0,0,2,9.22,7.75,7.75,0,0,0,10.74,2.19,7.6,7.6,0,0,0,2.2-2.21,18.13,18.13,0,0,0,2-9.2v-.81a18,18,0,0,0-2.06-9.12,7,7,0,0,0-6.48-3.53,6.84,6.84,0,0,0-6.42,3.55,18.09,18.09,0,0,0-2,9.1Z" fill="#fff"/></g><text transform="translate(246 188.79)" font-size="21" fill="#fff" font-family="Roboto-Medium, Roboto" font-weight="500">®</text></g></g></g></svg>