<svg xmlns="http://www.w3.org/2000/svg" viewBox="0 0 621 311"><title>PRONTO</title><g id="Capa_2" data-name="Capa 2"><g id="Capa_1-2" data-name="Capa 1"><rect x="0.5" y="0.5" width="620" height="310" fill="#293b4c" stroke="#293b4c" stroke-miterlimit="10"/><g opacity="0.7"><path d="M76.14,106.67v36.09h-20V43.23H94.26q17.14,0,27,8.75t9.84,23q0,14.28-9.84,23t-27,8.68Zm0-15.38H94.26q8.34,0,12.64-4.55a16.17,16.17,0,0,0,4.31-11.58,17,17,0,0,0-4.27-11.86q-4.27-4.69-12.68-4.69H76.14Z" fill="#7a7a77"/><path d="M165.35,103v39.78h-20V43.23h34.45q17,0,26.63,7.76t9.6,21.64A21.81,21.81,0,0,1,212,85.85a28.3,28.3,0,0,1-11.86,9q8.81,2.61,12.68,8.69t3.86,15v7.32a35.74,35.74,0,0,0,1.13,8.71,11.93,11.93,0,0,0,3.86,6.74v1.43H201.1c-1.82-1.45-3-3.87-3.52-7.24a64.13,64.13,0,0,1-.78-9.78v-7q0-7.45-4.07-11.59T181.21,103Zm0-15.38H179.5q8.42,0,12.51-3.56t4.1-10.52q0-6.84-4.13-10.87t-12.14-4H165.35Z" fill="#7a7a77"/><path d="M315.13,102q0,18.39-11.56,30.32T273.49,144.2q-18.45,0-29.94-12T232.07,102V84q0-18.24,11.45-30.25t29.84-12q18.52,0,30.14,12T315.13,84Zm-19.9-18q0-11.62-5.81-19.08t-16.06-7.45q-10.12,0-15.76,7.45T252,83.91v18q0,11.83,5.68,19.28t15.85,7.45q10.26,0,16-7.45T295.23,102Z" fill="#7a7a77"/><path d="M411.38,142.76h-20L351.29,75.63l-.41.07v67.06h-20V43.23h20L391,110.29l.41-.07v-67h20Z" fill="#7a7a77"/><path d="M497.1,58.61H468.66v84.15h-20V58.61h-28V43.23H497.1Z" fill="#7a7a77"/><path d="M586.65,102q0,18.39-11.55,30.32T545,144.2q-18.46,0-29.94-12T503.59,102V84q0-18.24,11.45-30.25t29.84-12q18.52,0,30.15,12T586.65,84Zm-19.89-18q0-11.62-5.81-19.08t-16.07-7.45q-10.11,0-15.76,7.45t-5.64,19.08v18q0,11.83,5.68,19.28T545,128.68q10.25,0,16-7.45T566.76,102Z" fill="#7a7a77"/></g><path d="M69.14,99.67v36.09h-20V36.23H87.26q17.14,0,27,8.75t9.84,23q0,14.28-9.84,23t-27,8.68Zm0-15.38H87.26q8.34,0,12.64-4.55a16.17,16.17,0,0,0,4.31-11.58A17,17,0,0,0,99.94,56.3q-4.27-4.69-12.68-4.69H69.14Z" fill="#fff"/><path d="M158.35,96v39.78h-20V36.23h34.45q17,0,26.63,7.76t9.6,21.64A21.81,21.81,0,0,1,205,78.85a28.3,28.3,0,0,1-11.86,9q8.81,2.61,12.68,8.69t3.86,15v7.32a35.74,35.74,0,0,0,1.13,8.71,11.93,11.93,0,0,0,3.86,6.74v1.43H194.1c-1.82-1.45-3-3.87-3.52-7.24a64.13,64.13,0,0,1-.78-9.78v-7q0-7.45-4.07-11.59T174.21,96Zm0-15.38H172.5q8.42,0,12.51-3.56t4.1-10.52q0-6.84-4.13-10.87t-12.14-4H158.35Z" fill="#fff"/><path d="M308.13,95q0,18.39-11.56,30.32T266.49,137.2q-18.45,0-29.94-12T225.07,95V77q0-18.24,11.45-30.25t29.84-12q18.52,0,30.14,12T308.13,77Zm-19.9-18q0-11.62-5.81-19.08t-16.06-7.45q-10.12,0-15.76,7.45T245,76.91V95q0,11.83,5.68,19.28t15.85,7.45q10.26,0,16-7.45T288.23,95Z" fill="#fff"/><path d="M404.38,135.76h-20L344.29,68.63l-.41.07v67.06h-20V36.23h20L384,103.29l.41-.07v-67h20Z" fill="#fff"/><path d="M490.1,51.61H461.66v84.15h-20V51.61h-28V36.23H490.1Z" fill="#fff"/><path d="M579.65,95q0,18.39-11.55,30.32T538,137.2q-18.46,0-29.94-12T496.59,95V77q0-18.24,11.45-30.25t29.84-12q18.52,0,30.15,12T579.65,77Zm-19.89-18q0-11.62-5.81-19.08t-16.07-7.45q-10.11,0-15.76,7.45t-5.64,19.08V95q0,11.83,5.68,19.28T538,121.68q10.25,0,16-7.45T559.76,95Z" fill="#fff"/></g></g></svg>