<svg xmlns="http://www.w3.org/2000/svg" viewBox="0 0 621 621"><title>Asset 1</title><g id="Layer_2" data-name="Layer 2"><g id="Capa_1" data-name="Capa 1"><rect x="0.5" y="0.5" width="620" height="620" fill="#293b4c" stroke="#293b4c" stroke-miterlimit="10"/><g opacity="0.5"><path d="M126.14,406.54H91.57l-7.18,23H62.33l35.75-106h21.77l35.6,106h-22ZM97,389.54h23.73l-11.61-37h-.43Z" fill="#bcbcb7"/><path d="M242.83,394.54l.14.44q.28,17-10.25,26.65t-29.08,9.64q-18.9,0-30.53-12.3t-11.62-31.8v-21.1q0-19.43,11.33-31.8t29.73-12.38q19.2,0,30,9.49t10.54,26.73l-.14.44H222.48q0-10.21-4.87-15.23t-15.05-5A17,17,0,0,0,187.8,346q-5.31,7.71-5.3,19.9v21.25q0,12.27,5.59,20t15.55,7.74q9.45,0,14.11-5t4.65-15.37h20.43Z" fill="#bcbcb7"/><path d="M329.5,340.54h-30v89h-21v-89h-30v-17h81Z" fill="#bcbcb7"/><path d="M363.5,428.54h-21v-105h21Z" fill="#bcbcb7"/><path d="M420.69,399.79l1.29,5.75h.43l1.22-5.53,22.78-76.47h22.3l-35.7,105H411.38l-35.63-105h22.3Z" fill="#bcbcb7"/><path d="M563.5,385.9q0,19.49-12.24,32.12t-31.87,12.64q-19.56,0-31.72-12.67T475.5,385.9v-19q0-19.34,12.13-32.05t31.61-12.71q19.62,0,31.94,12.71t12.31,32.05v19Zm-21-19.16q0-12.36-6.18-20.27t-17.08-7.92q-10.75,0-16.75,7.92t-6,20.27v19.18q0,12.57,6,20.49t16.86,7.92q10.9,0,17-7.92t6.1-20.49V366.74Z" fill="#bcbcb7"/></g><path d="M121.14,401.54H86.57l-7.18,23H57.33l35.75-106h21.77l35.6,106h-22ZM92,384.54h23.73l-11.61-37h-.43Z" fill="#fff"/><path d="M237.83,389.54l.14.44q.28,17-10.25,26.65t-29.08,9.64q-18.9,0-30.53-12.3t-11.62-31.8v-21.1q0-19.43,11.33-31.8t29.73-12.38q19.2,0,30,9.49t10.54,26.73l-.14.44H217.48q0-10.21-4.87-15.23t-15.05-5A17,17,0,0,0,182.8,341q-5.31,7.71-5.3,19.9v21.25q0,12.27,5.59,20t15.55,7.74q9.45,0,14.11-5t4.65-15.37h20.43Z" fill="#fff"/><path d="M324.5,335.54h-30v89h-21v-89h-30v-17h81Z" fill="#fff"/><path d="M358.5,423.54h-21v-105h21Z" fill="#fff"/><path d="M415.69,394.79l1.29,5.75h.43l1.22-5.53,22.79-76.47h22.3l-35.7,105H406.39l-35.63-105h22.3Z" fill="#fff"/><path d="M558.5,380.9q0,19.49-12.24,32.12t-31.87,12.64q-19.56,0-31.72-12.67T470.5,380.9v-19q0-19.34,12.13-32.05t31.61-12.71q19.62,0,31.94,12.71t12.31,32.05v19Zm-21-19.16q0-12.36-6.18-20.27t-17.08-7.92q-10.75,0-16.75,7.92t-6,20.27v19.18q0,12.57,6,20.49t16.86,7.92q10.9,0,17-7.92t6.1-20.49V361.74Z" fill="#fff"/><g opacity="0.5"><path d="M178.5,274.54h-23v-114h23Z" fill="#bcbcb7"/><path d="M225.84,189.54l1,12.18a31,31,0,0,1,10.44-10.13A27,27,0,0,1,251.19,188q12.87,0,20.09,8.29t7.22,26.2v52.07h-23V222.82q0-9.06-3.17-12.85t-9.5-3.79a20.09,20.09,0,0,0-9,1.91,17.43,17.43,0,0,0-6.37,5.27v61.18h-23v-85Z" fill="#bcbcb7"/><path d="M327.5,169.54v20h14v16h-14v43.05c0,3.28.7,5.63,2.09,7a7.39,7.39,0,0,0,5.49,2.11,20.9,20.9,0,0,0,3.16-.2,27.11,27.11,0,0,0,3.08-.66l1.9,16.48a47.23,47.23,0,0,1-6.76,1.76,40.8,40.8,0,0,1-7.15.59q-11.94,0-18.38-6.48t-6.44-20.55V205.54h-12v-15h12v-21Z" fill="#bcbcb7"/><path d="M397.71,276q-18.93,0-29.57-11.6T357.5,234.48v-3.13q0-19,10.33-31.09t28.4-12q17.06,0,26.17,10.43t9.11,28.09v11.79H381.06l-.23.47q.54,8.67,5.28,14.06t14,5.39a47.07,47.07,0,0,0,13-1.56,53,53,0,0,0,11.07-4.77l6.18,14.06a42.33,42.33,0,0,1-13.77,6.95A61.1,61.1,0,0,1,397.71,276Zm-1.1-70.08q-6.87,0-10.59,4.73t-4.49,12.54l.16.39H409.5v-1.72q0-7.42-3.05-11.68T396.61,205.88Z" fill="#bcbcb7"/><path d="M495.47,209.26,487,209a15.49,15.49,0,0,0-8.46,2.12,13.44,13.44,0,0,0-5.06,6v57.43h-23v-85h21.42l1,12.57a26.83,26.83,0,0,1,7.79-10.41,17.41,17.41,0,0,1,11-3.73,17.69,17.69,0,0,1,3.2.27c1,.18,2,.41,3,.67Z" fill="#bcbcb7"/></g><path d="M173.5,269.54h-23v-114h23Z" fill="#fff"/><path d="M220.84,184.54l1,12.18a31,31,0,0,1,10.44-10.13A27,27,0,0,1,246.19,183q12.87,0,20.09,8.29t7.22,26.2v52.07h-23V217.82q0-9.06-3.17-12.85t-9.5-3.79a20.09,20.09,0,0,0-9,1.91,17.43,17.43,0,0,0-6.37,5.27v61.18h-23v-85Z" fill="#fff"/><path d="M322.5,164.54v20h14v16h-14v43.05c0,3.28.7,5.63,2.09,7a7.39,7.39,0,0,0,5.49,2.11,20.9,20.9,0,0,0,3.16-.2,27.11,27.11,0,0,0,3.08-.66l1.9,16.48a47.23,47.23,0,0,1-6.76,1.76,40.8,40.8,0,0,1-7.15.59q-11.94,0-18.38-6.48t-6.44-20.55V200.54h-12v-15h12v-21Z" fill="#fff"/><path d="M392.71,271q-18.93,0-29.57-11.6T352.5,229.48v-3.13q0-19,10.33-31.09t28.4-12q17.06,0,26.17,10.43t9.11,28.09v11.79H376.06l-.23.47q.54,8.67,5.28,14.06t14,5.39a47.07,47.07,0,0,0,13-1.56,53,53,0,0,0,11.07-4.77l6.18,14.06a42.33,42.33,0,0,1-13.77,6.95A61.1,61.1,0,0,1,392.71,271Zm-1.1-70.08q-6.87,0-10.59,4.73t-4.49,12.54l.16.39H404.5v-1.72q0-7.42-3.05-11.68T391.61,200.88Z" fill="#fff"/><path d="M490.47,204.26,482,204a15.49,15.49,0,0,0-8.46,2.12,13.44,13.44,0,0,0-5.06,6v57.43h-23v-85h21.42l1,12.57a26.83,26.83,0,0,1,7.79-10.41,17.41,17.41,0,0,1,11-3.73,17.69,17.69,0,0,1,3.2.27c1,.18,2,.41,3,.67Z" fill="#fff"/></g></g></svg>