<svg xmlns="http://www.w3.org/2000/svg" viewBox="0 0 621 311"><title>InterActivoSuperior</title><g id="Capa_2" data-name="Capa 2"><g id="Capa_1-2" data-name="Capa 1"><rect x="0.5" y="0.5" width="620" height="310" fill="#293b4c" stroke="#293b4c" stroke-miterlimit="10"/><g opacity="0.5"><path d="M178.5,283.54h-23v-114h23Z" fill="#bcbcb7"/><path d="M225.84,198.54l1,12.18a31.15,31.15,0,0,1,10.44-10.14A27,27,0,0,1,251.19,197q12.87,0,20.09,8.29t7.22,26.2v52.08h-23V231.82q0-9.06-3.17-12.85t-9.5-3.79a20.09,20.09,0,0,0-9,1.91,17.54,17.54,0,0,0-6.37,5.28v61.17h-23v-85Z" fill="#bcbcb7"/><path d="M327.5,178.54v20h14v16h-14v43q0,4.92,2.09,7a7.44,7.44,0,0,0,5.5,2.11,22.29,22.29,0,0,0,3.16-.2,27.57,27.57,0,0,0,3.08-.66l1.9,16.48a47.23,47.23,0,0,1-6.76,1.76,40.8,40.8,0,0,1-7.15.59q-11.94,0-18.38-6.49t-6.44-20.54V214.54h-12v-15h12v-21Z" fill="#bcbcb7"/><path d="M397.71,285q-18.93,0-29.57-11.6T357.5,243.48v-3.13q0-19,10.33-31.09t28.39-12q17.05,0,26.17,10.43t9.11,28.08v11.8H381.05l-.24.47q.54,8.67,5.28,14.06t14,5.39a47.2,47.2,0,0,0,13-1.56,53,53,0,0,0,11.07-4.77l6.17,14.07a42.47,42.47,0,0,1-13.76,6.95A61.29,61.29,0,0,1,397.71,285Zm-1.1-70.08q-6.87,0-10.59,4.73t-4.49,12.54l.16.39H409.5v-1.72q0-7.42-3.05-11.68T396.61,214.88Z" fill="#bcbcb7"/><path d="M495.47,218.26,487,218a15.47,15.47,0,0,0-8.46,2.12,13.56,13.56,0,0,0-5.06,6v57.43h-23v-85h21.42l1,12.57a26.81,26.81,0,0,1,7.78-10.41,17.41,17.41,0,0,1,11-3.73,17.69,17.69,0,0,1,3.2.27c1,.19,2,.41,3,.67Z" fill="#bcbcb7"/></g><path d="M173.5,278.54h-23v-114h23Z" fill="#fff"/><path d="M220.84,193.54l1,12.18a31.15,31.15,0,0,1,10.44-10.14A27,27,0,0,1,246.19,192q12.87,0,20.09,8.29t7.22,26.2v52.08h-23V226.82q0-9.06-3.17-12.85t-9.5-3.79a20.09,20.09,0,0,0-9,1.91,17.54,17.54,0,0,0-6.37,5.28v61.17h-23v-85Z" fill="#fff"/><path d="M322.5,173.54v20h14v16h-14v43.05q0,4.92,2.09,7a7.44,7.44,0,0,0,5.5,2.11,22.29,22.29,0,0,0,3.16-.2,27.57,27.57,0,0,0,3.08-.66l1.9,16.48a47.23,47.23,0,0,1-6.76,1.76,40.8,40.8,0,0,1-7.15.59q-11.94,0-18.38-6.49t-6.44-20.54V209.54h-12v-15h12v-21Z" fill="#fff"/><path d="M392.71,280q-18.93,0-29.57-11.6T352.5,238.48v-3.13q0-19,10.33-31.09t28.39-12q17.05,0,26.17,10.43t9.11,28.08v11.8H376.05l-.24.47q.54,8.67,5.28,14.06t14,5.39a47.2,47.2,0,0,0,13-1.56,53,53,0,0,0,11.07-4.77l6.17,14.07a42.47,42.47,0,0,1-13.76,6.95A61.29,61.29,0,0,1,392.71,280Zm-1.1-70.08q-6.87,0-10.59,4.73t-4.49,12.54l.16.39H404.5v-1.72q0-7.42-3.05-11.68T391.61,209.88Z" fill="#fff"/><path d="M490.47,213.26,482,213a15.47,15.47,0,0,0-8.46,2.12,13.56,13.56,0,0,0-5.06,6v57.43h-23v-85h21.42l1,12.57a26.81,26.81,0,0,1,7.78-10.41,17.41,17.41,0,0,1,11-3.73,17.69,17.69,0,0,1,3.2.27c1,.19,2,.41,3,.67Z" fill="#fff"/></g></g></svg>