<svg xmlns="http://www.w3.org/2000/svg" viewBox="0 0 767 338"><title>Recurso 3</title><g id="Capa_2" data-name="Capa 2"><g id="Capa_1-2" data-name="Capa 1"><rect x="0.5" y="26.5" width="276" height="283" style="stroke:#000;stroke-miterlimit:10"/><line x1="325" x2="325" y2="338" style="fill:#040303;stroke:#040303;stroke-miterlimit:10;stroke-width:2px"/><path d="M71,159H59V101H71Z" style="fill:#fff"/><path d="M91.6723,116l.51,6.15992a15.62022,15.62022,0,0,1,5.2185-5.12667,13.415,13.415,0,0,1,6.94487-1.82806q6.43474,0,10.04454,4.1929T118,132.65161V159H106V132.8174q0-4.5879-1.5841-6.5058a5.80368,5.80368,0,0,0-4.75107-1.9185,9.87827,9.87827,0,0,0-4.478.9692A8.77183,8.77183,0,0,0,92,128.0318V159H81V116Z" style="fill:#fff"/><path d="M141,106v10h7v8h-7v21.7925a4.83679,4.83679,0,0,0,1.09258,3.5595,3.92562,3.92562,0,0,0,2.8662,1.0679,11.90488,11.90488,0,0,0,1.64945-.0991,14.28633,14.28633,0,0,0,1.60826-.3359l.98967,8.3452a25.31375,25.31375,0,0,1-3.52546.8901,21.95347,21.95347,0,0,1-3.73221.2964q-6.22689,0-9.58787-3.2827T129,145.832V124h-6v-8h6V106Z" style="fill:#fff"/><path d="M173.10356,159.9448q-9.46575,0-14.78424-5.8735Q153,148.19865,153,138.9433v-1.582q0-9.6108,5.16288-15.7412,5.16267-6.13035,14.19763-6.0908,8.52634,0,13.08271,5.2802Q189.9998,126.0889,190,135.0278V141H164.77272l-.11728.2373a11.63348,11.63348,0,0,0,2.63978,7.1191q2.36626,2.7291,7.02084,2.729a23.227,23.227,0,0,0,6.51194-.791,26.38813,26.38813,0,0,0,5.53461-2.4126l3.08983,7.1191a21.10737,21.10737,0,0,1-6.88377,3.5201A30.21552,30.21552,0,0,1,173.10356,159.9448Zm-.62945-35.8833a6.41477,6.41477,0,0,0-5.35941,2.3931,11.99959,11.99959,0,0,0-2.2739,6.3476l.0791.1978H179v-.8701a9.99466,9.99466,0,0,0-1.5425-5.9126Q175.91505,124.06165,172.47411,124.0615Z" style="fill:#fff"/><path d="M220.46389,125.975l-4.41233-.11917a8.25348,8.25348,0,0,0-4.41244,1.073A6.87136,6.87136,0,0,0,209,129.94916V159H197V116h11.17527l.536,6.35858a13.62411,13.62411,0,0,1,4.06159-5.26544,9.78427,9.78427,0,0,1,7.42274-1.74868q.7629.13911,1.54665.33762Z" style="fill:#fff"/><path d="M79,205.84547a22.15965,22.15965,0,0,1-8.11294,6.28069q-5.39535,2.66268-13.90792,2.66242-10.55075,0-17.26493-6.74793Q33,201.29338,33,190.52032V178.16255q0-10.73165,6.51434-17.49967,6.51365-6.76915,16.74544-6.76859,10.67066,0,16.3457,5.14251,5.67439,5.14235,5.47528,13.7193L78.00083,173H65.72835a9.54989,9.54989,0,0,0-2.59964-7.1392q-2.59965-2.5503-7.56614-2.5508a10.09943,10.09943,0,0,0-8.38088,4.0938A16.67581,16.67581,0,0,0,44,177.9438v12.1026q0,6.5259,3.25929,10.6391a10.56526,10.56526,0,0,0,8.73013,4.1133,19.73074,19.73074,0,0,0,6.38291-.8306A9.682,9.682,0,0,0,66,201.872V191H56v-8H79Z" style="fill:#fff"/><path d="M110.46388,179.975l-4.41233-.11917a8.2539,8.2539,0,0,0-4.41232,1.07294A6.87179,6.87179,0,0,0,99,183.94916V213H87V170H98.17528l.53612,6.35858a13.623,13.623,0,0,1,4.06158-5.26544,9.784,9.784,0,0,1,7.42263-1.74868q.76288.13911,1.54664.33762Z" style="fill:#fff"/><path d="M142.28841,206.64142a14.52484,14.52484,0,0,1-4.983,5.32533,13.08224,13.08224,0,0,1-7.02334,1.86785q-6.70946,0-10.49552-4.61-3.787-4.61-3.78657-14.30687V170h11v24.8774q0,5.6163,1.49691,7.6929a5.34467,5.34467,0,0,0,4.64751,2.0762,11.16047,11.16047,0,0,0,4.66666-.8897A7.89761,7.89761,0,0,0,141,201.1264V170h12v43h-9.49524Z" style="fill:#fff"/><path d="M200,192.5835q0,9.49215-4.37514,15.2666-4.37525,5.77515-12.219,5.7744a13.62452,13.62452,0,0,1-5.95176-1.2456A12.23975,12.23975,0,0,1,173,208.7202V229H161V170h10.89637l.67011,5.0625a13.68647,13.68647,0,0,1,4.55274-4.3311,12.284,12.284,0,0,1,6.20778-1.5224,14.17927,14.17927,0,0,1,12.29786,6.2094Q200,181.628,200,191.7529Zm-11-.58367a21.31292,21.31292,0,0,0-2.07635-10.09666,6.77281,6.77281,0,0,0-6.35109-3.86765,8.97739,8.97739,0,0,0-4.58039,1.09927A7.84606,7.84606,0,0,0,173,182.26962v19.29757a7.29043,7.29043,0,0,0,2.99217,2.84991,10.08232,10.08232,0,0,0,4.6618.97708,6.83711,6.83711,0,0,0,6.33053-3.37911q2.016-3.37915,2.0155-9.16025Z" style="fill:#fff"/><path d="M206,191.24412q0-9.48082,5.28888-15.534,5.289-6.05211,14.65233-6.0526,9.40267,0,14.73068,6.03328Q245.99935,181.724,246,191.24412v.82276q0,9.55927-5.30869,15.57325-5.3086,6.01362-14.67175,6.01347-9.40251,0-14.71126-6.01347-5.30861-6.01378-5.3083-15.57325Zm11,.8193a18.2711,18.2711,0,0,0,2.01823,9.21834,7.7542,7.7542,0,0,0,12.94431-.01972A18.15272,18.15272,0,0,0,234,192.06342v-.8151a17.963,17.963,0,0,0-2.05709-9.121,6.961,6.961,0,0,0-6.48177-3.53195,6.87566,6.87566,0,0,0-6.42377,3.55109A18.13273,18.13273,0,0,0,217,191.24832Z" style="fill:#fff"/><path d="M248.54789,206.4482a7.20911,7.20911,0,0,1,2.0214-5.1855,6.76843,6.76843,0,0,1,9.81939,0,7.66647,7.66647,0,0,1-.0049,10.3906,6.74123,6.74123,0,0,1-9.81449,0A7.25511,7.25511,0,0,1,248.54789,206.4482Zm1.1914,0a6.06388,6.06388,0,0,0,1.6748,4.3409,5.56277,5.56277,0,0,0,8.125,0,6.43748,6.43748,0,0,0,0-8.6621,5.5895,5.5895,0,0,0-8.1299,0A6.02455,6.02455,0,0,0,249.73929,206.4482ZM254,207v3h-1v-8h2.34469a8.80561,8.80561,0,0,1,2.3242.8447,2.26337,2.26337,0,0,1,.8497,1.8946,1.74851,1.74851,0,0,1-.2832.9912,2.32,2.32,0,0,1-.8301.7275,1.808,1.808,0,0,1,.8252.8252A3.23238,3.23238,0,0,0,259,208.5381v.5469c-.51071.2671-.499.5063-.47661.7177s.0664.3858.47661.5225V210h-1.87038a1.49758,1.49758,0,0,1-.10962-.5474q-.01944-.36057-.02-.73446v-.48067a1.20165,1.20165,0,0,0-.33384-.93474A1.6033,1.6033,0,0,0,255.57481,207Zm0-1h1.39359a4.36267,4.36267,0,0,0,1.1767-.4111.9284.9284,0,0,0,.4834-.8399,1.15277,1.15277,0,0,0-.3808-.9863c-.254-.189-.6963-.2832-1.3282.2373H254Z" style="fill:#fff"/><path d="M396.01368,117h.25694L406.9763,90h13.17445L402,129.89977V152H390V129.19905L372.2132,90h13.13748Z" style="fill:#1f140f"/><path d="M420,128.86054q0-10.417,4.97436-16.97168,4.97323-6.55306,13.98252-6.55351,8.966,0,14.00414,6.55351,5.03808,6.55442,5.039,16.97168v.982q0,10.41777-5.01737,16.92907-5.01757,6.511-13.93941,6.51079-9.053,0-14.04736-6.48969Q420.0006,140.30293,420,129.84249Zm12,.98327a27.00808,27.00808,0,0,0,1.60533,10.27561,5.573,5.573,0,0,0,5.45962,3.81044q3.68063,0,5.309-3.81044A26.69727,26.69727,0,0,0,446,129.84381v-.98469a26.92923,26.92923,0,0,0-1.626-10.25434q-1.62852-3.874-5.39562-3.87454-3.76768,0-5.373,3.89621A27.2729,27.2729,0,0,0,432,128.85912Z" style="fill:#1f140f"/><path d="M487.97935,145.45285a14.79137,14.79137,0,0,1-4.523,5.50533,10.55363,10.55363,0,0,1-6.28882,1.93462,11.18466,11.18466,0,0,1-9.65417-4.97411Q464,142.94453,464,132.52868V106h12v26.5927q0,6.15975,1.17346,8.5176a3.87574,3.87574,0,0,0,3.68721,2.3574,7.62942,7.62942,0,0,0,3.54417-.7861A7.16723,7.16723,0,0,0,487,140.3667V106h12v46h-9.717Z" style="fill:#1f140f"/><path d="M528.524,116.37336l-4.0998-.1275a5.24411,5.24411,0,0,0-3.35274,1.06284A6.72681,6.72681,0,0,0,519,120.28464V152H507V106h11.23224l.46928,6.50462a14.1527,14.1527,0,0,1,3.395-5.42077,6.77729,6.77729,0,0,1,4.76149-1.93412,7.0675,7.0675,0,0,1,1.49524.14852q.68322.14952,1.40883.36158Z" style="fill:#1f140f"/><path d="M586,126H566v26H554V91h35v9H566v17h20Z" style="fill:#1f140f"/><path d="M617.97935,145.45285a14.79137,14.79137,0,0,1-4.523,5.50533,10.55363,10.55363,0,0,1-6.28882,1.93462,11.18466,11.18466,0,0,1-9.65417-4.97411Q594,142.94453,594,132.52868V106h12v26.5927q0,6.15975,1.17354,8.5176a3.87556,3.87556,0,0,0,3.68713,2.3574,7.62942,7.62942,0,0,0,3.54417-.7861A7.16643,7.16643,0,0,0,617,140.3667V106h12v46h-9.717Z" style="fill:#1f140f"/><path d="M651,95v11h6v9h-6v23.4068a8.18018,8.18018,0,0,0,.78025,4.1631,2.41808,2.41808,0,0,0,2.1449,1.2319,6.45667,6.45667,0,0,0,1.28766-.106,10.75974,10.75974,0,0,0,1.24826-.3613l.85819,8.8359a18.09609,18.09609,0,0,1-2.98429.8711,17.0395,17.0395,0,0,1-3.21835.2759q-5.383,0-8.24987-3.5683Q640.00046,146.18075,640,138.4917V115h-6v-9h5V95Z" style="fill:#1f140f"/><path d="M687.97926,145.45285a14.79022,14.79022,0,0,1-4.52287,5.50533,10.55361,10.55361,0,0,1-6.28882,1.93462,11.18465,11.18465,0,0,1-9.65416-4.97411q-3.51346-4.97416-3.51341-15.39V106h12v26.5927q0,6.15975,1.17344,8.5176a3.8756,3.8756,0,0,0,3.68723,2.3574,7.62942,7.62942,0,0,0,3.54417-.7861A7.1674,7.1674,0,0,0,687,140.3667V106h12v46h-9.717Z" style="fill:#1f140f"/><path d="M728.524,116.37336l-4.0998-.1275a5.24392,5.24392,0,0,0-3.35274,1.06284A6.72681,6.72681,0,0,0,719,120.28464V152H707V106h11.23224l.46928,6.50462a14.15032,14.15032,0,0,1,3.395-5.42077,6.77729,6.77729,0,0,1,4.76149-1.93412,7.067,7.067,0,0,1,1.49521.14852q.68327.14952,1.40886.36158Z" style="fill:#1f140f"/><path d="M751.02174,153.4756q-9.04583,0-14.03381-6.2871Q732,140.90215,732,131.0035v-1.7417q0-10.40775,4.79748-16.9498,4.797-6.5412,13.50523-6.5419,8.07357,0,12.3857,5.5649,4.31165,5.5656,4.31159,15.123V133H743.92031a16.19889,16.19889,0,0,0,2.304,8.1138,6.91708,6.91708,0,0,0,6.19294,3.0161,18.29446,18.29446,0,0,0,5.93822-.8286,24.06553,24.06553,0,0,0,5.13569-2.6123l3.08618,7.4766a19.73873,19.73873,0,0,1-6.61555,3.7807A25.72425,25.72425,0,0,1,751.02174,153.4756Zm-1.07734-38.4161a4.79787,4.79787,0,0,0-4.4815,2.6548A18.38118,18.38118,0,0,0,743.6153,125H755v-1.062a14.90434,14.90434,0,0,0-1.168-6.542A4.02256,4.02256,0,0,0,749.9444,115.0595Z" style="fill:#1f140f"/><path d="M415,209.37467q0,10.14738-5.48477,15.808-5.48583,5.66214-14.69145,5.66109-9.08963,0-14.45645-5.66109Q374.999,219.52205,375,209.37467V193.70376q0-10.10782,5.36733-15.82768,5.36682-5.71931,14.41724-5.71986,9.20562,0,14.7111,5.7003Q414.9991,183.55673,415,193.70376Zm-8-15.73188q0-7.38969-3.17019-11.22214-3.17109-3.8304-9.04376-3.83139-5.68,0-8.73256,3.83139Q382.99891,186.2527,383,193.64279V209.3187q0,7.46841,3.0729,11.31933,3.07191,3.85086,8.75209,3.85081,5.87256,0,9.02433-3.83139Q407,216.8269,407,209.3187Z" style="fill:#1f140f"/><path d="M445.5769,223.86688a13.48966,13.48966,0,0,1-4.30769,5.14328,11.19167,11.19167,0,0,1-15.0384-2.659Q423.00005,221.88825,423,212.49351V188h8v24.7265q0,6.797,1.61291,9.5118a5.33653,5.33653,0,0,0,4.91936,2.7148A8.76381,8.76381,0,0,0,446,219.6797V188h7v42h-6.65382Z" style="fill:#1f140f"/><path d="M481.196,194.56l-3.451-.19408a6.02489,6.02489,0,0,0-4.17639,1.49445A9.55489,9.55489,0,0,0,471,200.07206V230h-8V188h7.3333l.54906,6.21072a13.49187,13.49187,0,0,1,3.60785-5.14327,7.64044,7.64044,0,0,1,5.05873-1.84384,6.79863,6.79863,0,0,1,1.39213.13584,7.84834,7.84834,0,0,1,1.15691.33Z" style="fill:#1f140f"/><path d="M514,207v23h-8V173h18.64035q8.15757,0,12.78814,4.68368Q542.05842,182.36742,542.059,190q0,7.67166-4.63048,12.33561Q532.79691,207.00045,524.64035,207Zm0-6h10.42107a8.13163,8.13163,0,0,0,6.90879-3.10709,12.57359,12.57359,0,0,0,2.35438-7.81574,12.96793,12.96793,0,0,0-2.33511-7.91228A8.06374,8.06374,0,0,0,524.42107,179H514Z" style="fill:#1f140f"/><path d="M570.124,230q-.51728-1.94655-.81483-3.47778a21.84264,21.84264,0,0,1-.37759-3.04046,15.78828,15.78828,0,0,1-4.51114,5.26622,10.404,10.404,0,0,1-6.37912,2.08667q-5.76369,0-8.84342-3.41816-3.08082-3.41754-3.08024-9.34013a11.712,11.712,0,0,1,4.27263-9.57874Q554.662,205.001,562.29414,205H569v-4.43994a9.85157,9.85157,0,0,0-1.72555-6.18,6.55142,6.55142,0,0,0-9.54906-.3,7.131,7.131,0,0,0-1.70588,4.92l-7.60786.04-.07851-.24a11.09706,11.09706,0,0,1,3.84324-8.88,14.92671,14.92671,0,0,1,10.66673-3.84,14.13208,14.13208,0,0,1,10.23535,3.78Q576.999,193.64009,577,200.64v19.98005a35.20269,35.20269,0,0,0,.318,4.78932A30.37059,30.37059,0,0,0,578.31164,230Zm-10.14754-5.625a8.899,8.899,0,0,0,5.7422-2.0118A9.3214,9.3214,0,0,0,569,217.5V210h-6.6016a7.29416,7.29416,0,0,0-5.7422,2.3242,8.13281,8.13281,0,0,0-2.07028,5.6055,7.28692,7.28692,0,0,0,1.40628,4.6875A4.80938,4.80938,0,0,0,559.9765,224.375Z" style="fill:#1f140f"/><path d="M606.12487,218.96144a5.545,5.545,0,0,0-1.61536-4.05768,21.64522,21.64522,0,0,0-6.19231-3.673,31.02089,31.02089,0,0,1-9.61532-5.26925,9.34331,9.34331,0,0,1-3.19231-7.30768,10.50952,10.50952,0,0,1,3.86539-8.19226,14.71277,14.71277,0,0,1,10.0576-3.3846q6.42252,0,10.3461,3.71159a11.42089,11.42089,0,0,1,3.76919,8.98074L613.471,200h-7.53838a7.78625,7.78625,0,0,0-1.75005-5.09615,5.81817,5.81817,0,0,0-4.75-2.13454,6.3171,6.3171,0,0,0-4.67306,1.67305,5.35142,5.35142,0,0,0-1.673,3.90379,4.914,4.914,0,0,0,1.44228,3.75,25.46657,25.46657,0,0,0,6.17309,3.51929q6.53787,2.30769,9.82684,5.346a9.93488,9.93488,0,0,1,3.28848,7.61537,10.38832,10.38832,0,0,1-3.98078,8.44226q-3.98073,3.251-10.4423,3.25-7.00087,0-11.01915-3.90378a11.69481,11.69481,0,0,1-3.82691-9.13464L584.6249,217h7.26928q.15287,4.03833,2.28844,5.82683a8.01048,8.01048,0,0,0,5.32684,1.78845,6.95358,6.95358,0,0,0,4.86538-1.59616A5.25059,5.25059,0,0,0,606.12487,218.96144Z" style="fill:#1f140f"/><path d="M641.35926,218.96144a5.54466,5.54466,0,0,0-1.61545-4.05768,21.64324,21.64324,0,0,0-6.19222-3.673,31.02281,31.02281,0,0,1-9.61541-5.26925,9.34316,9.34316,0,0,1-3.19221-7.30768,10.50937,10.50937,0,0,1,3.86531-8.19226A14.71312,14.71312,0,0,1,634.667,187.077q6.42252,0,10.3461,3.71159a11.42164,11.42164,0,0,1,3.76919,8.98074l-.0769.23069h-7.53848a7.78617,7.78617,0,0,0-1.75-5.09615,5.81843,5.81843,0,0,0-4.75-2.13454,6.31694,6.31694,0,0,0-4.67306,1.67305,5.3515,5.3515,0,0,0-1.67305,3.90379,4.91368,4.91368,0,0,0,1.44226,3.75,25.4685,25.4685,0,0,0,6.173,3.51929q6.538,2.30769,9.82692,5.346a9.93473,9.93473,0,0,1,3.2885,7.61537,10.38832,10.38832,0,0,1-3.98078,8.44226q-3.9807,3.251-10.4423,3.25-7.00087,0-11.01917-3.90378a11.69419,11.69419,0,0,1-3.82689-9.13464L619.8593,217h7.26918q.15287,4.03833,2.28844,5.82683a8.011,8.011,0,0,0,5.327,1.78845,6.95351,6.95351,0,0,0,4.86534-1.59616A5.25046,5.25046,0,0,0,641.35926,218.96144Z" style="fill:#1f140f"/><path d="M665,177h-8v-8h8Zm0,53h-8V188h8Z" style="fill:#1f140f"/><path d="M673,208.34172q0-9.30081,4.4-15.24554a15.2682,15.2682,0,0,1,24.18067,0q4.41891,5.94429,4.41935,15.24554v1.04212q0,9.34143-4.4,15.22638a15.3801,15.3801,0,0,1-24.2,0q-4.40009-5.885-4.4-15.22638Zm8,1.035a23.88313,23.88313,0,0,0,2.11076,10.76284,6.8408,6.8408,0,0,0,6.44629,4.18345q4.22144,0,6.33219-4.20244A23.90842,23.90842,0,0,0,698,209.37668v-1.02686a23.78573,23.78573,0,0,0-2.12975-10.70578q-2.13072-4.24-6.38924-4.24041-4.26,0-6.37025,4.24041A23.96471,23.96471,0,0,0,681,208.34982Z" style="fill:#1f140f"/><path d="M721.17222,188l.46277,6.24948a14.15729,14.15729,0,0,1,4.473-5.182,10.616,10.616,0,0,1,6.13118-1.84384,10.22877,10.22877,0,0,1,8.65679,4.11468q3.10314,4.115,3.10408,12.80959V230h-8V204.0234q0-5.97645-1.60373-8.4375a5.39709,5.39709,0,0,0-4.849-2.4609,7.29519,7.29519,0,0,0-4.52833,1.4258A9.92974,9.92974,0,0,0,722,198.4766V230h-8V188Z" style="fill:#1f140f"/></g></g></svg>